<svg xmlns="http://www.w3.org/2000/svg" viewBox="0 0 100 100" width="100" height="100">
  <!-- 背景圓形 -->
  <circle cx="50" cy="50" r="45" fill="#4CAF50" stroke="#45a049" stroke-width="2"/>
  
  <!-- 待辦事項清單圖標 -->
  <rect x="25" y="20" width="50" height="60" rx="5" fill="white" stroke="#333" stroke-width="1.5"/>
  
  <!-- 清單項目 -->
  <rect x="30" y="28" width="3" height="3" fill="#4CAF50"/>
  <line x1="36" y1="29.5" x2="65" y2="29.5" stroke="#333" stroke-width="1.5"/>
  
  <rect x="30" y="36" width="3" height="3" fill="#4CAF50"/>
  <line x1="36" y1="37.5" x2="65" y2="37.5" stroke="#333" stroke-width="1.5"/>
  
  <rect x="30" y="44" width="3" height="3" fill="#4CAF50"/>
  <line x1="36" y1="45.5" x2="65" y2="45.5" stroke="#333" stroke-width="1.5"/>
  
  <!-- 勾選標記 -->
  <circle cx="31.5" cy="54.5" r="2" fill="white" stroke="#4CAF50" stroke-width="1.5"/>
  <path d="M30 54.5 L31.2 55.7 L33.5 53.4" stroke="#4CAF50" stroke-width="1.5" fill="none"/>
  <line x1="36" y1="54.5" x2="65" y2="54.5" stroke="#ccc" stroke-width="1.5"/>
  
  <rect x="30" y="61" width="3" height="3" fill="#ddd"/>
  <line x1="36" y1="62.5" x2="65" y2="62.5" stroke="#ddd" stroke-width="1.5"/>
  
  <rect x="30" y="69" width="3" height="3" fill="#ddd"/>
  <line x1="36" y1="70.5" x2="65" y2="70.5" stroke="#ddd" stroke-width="1.5"/>
</svg>